<svg version="1.1" id="Layer_1" xmlns="http://www.w3.org/2000/svg" xmlns:xlink="http://www.w3.org/1999/xlink" x="0px" y="0px" width="100%" viewBox="0 0 360 360" enable-background="new 0 0 360 360" xml:space="preserve">
<defs>
    <linearGradient id="gradient-0" gradientUnits="userSpaceOnUse" x1="241.23670959472656" y1="675.8709716796875" x2="241.2366943359375" y2="775.8711547851562" gradientTransform="matrix(-0.0012654108336507082, -0.9999988372294004, 0.006346425990591944, -0.000008110346212444417, 229.71793987454365, 776.5607023864759)">                <stop offset="0" style="stop-color: #B197FC;"/>                <stop offset="1" style="stop-color: #C1AFFF;"/>              </linearGradient>
    <linearGradient id="gradient-1" gradientUnits="userSpaceOnUse" x1="234" y1="471" x2="234" y2="571" gradientTransform="matrix(0.8571050687018336, -0.5151431077287489, 0.008199151115054091, 0.013641669454558211, 45.24361297460119, 624.6304983465637)">                <stop offset="0" style="stop-color: #E0D8FF;"/>                <stop offset="1" style="stop-color: #D1C6FF;"/>              </linearGradient>
    <linearGradient id="gradient-2" gradientUnits="userSpaceOnUse" x1="234" y1="471" x2="234" y2="571" gradientTransform="matrix(0.8687092020762066, 0.49532353673751117, -0.006038381628750358, 0.010590204001014172, 18.555517463961007, 390.18394190077277)">                <stop offset="0" style="stop-color: #755CDA;"/>                <stop offset="1" style="stop-color: #6A51C8;"/>              </linearGradient>
</defs>
<path fill="url(#gradient-0)" opacity="1.000000" stroke="none" 	d="M204.000000,361.000000 	C136.023438,361.000000 68.546875,361.000000 1.035154,361.000000 	C1.035154,241.065109 1.035154,121.130203 1.035154,1.097649 	C120.893166,1.097649 240.786438,1.097649 360.839844,1.097649 	C360.839844,120.999832 360.839844,240.999893 360.839844,361.000000 	C308.796967,361.000000 256.648499,361.000000 204.000000,361.000000 M240.112717,126.772629 	C245.357635,132.897385 250.602554,139.022141 255.832703,145.129639 	C254.410095,146.624954 253.465805,147.617493 252.521515,148.610046 	C253.167603,148.145737 253.813675,147.681442 254.459747,147.217148 	C257.710693,151.374603 261.568176,155.201797 264.057709,159.773834 	C267.108673,165.377014 271.495941,168.180649 277.426025,169.274078 	C277.585602,169.303513 277.737793,169.391388 277.884674,169.468674 	C281.204681,171.215149 285.011292,174.892349 287.715027,174.208389 	C290.865906,173.411331 293.009003,168.761292 295.672760,165.859711 	C297.318665,164.066864 299.952393,162.713715 300.690460,160.645035 	C302.655426,155.137634 303.833984,149.349640 305.241577,143.991577 	C303.826385,142.212402 301.509033,140.403961 300.687805,138.069290 	C297.650726,129.434860 295.107666,120.626656 292.280396,111.568100 	C291.174408,112.151497 289.382904,113.096504 287.591370,114.041512 	C287.226349,113.744423 286.861328,113.447327 286.496338,113.150230 	C288.785583,110.140793 291.130615,107.171600 293.343201,104.106796 	C294.667816,102.271965 297.627411,100.245361 294.014374,98.087936 	C285.810333,93.189102 279.488770,86.536140 273.388794,79.190750 	C261.942780,65.407829 247.128738,55.840588 230.283722,49.823589 	C222.447449,47.024498 214.172775,45.452763 206.096832,43.324661 	C205.933426,43.840481 205.770035,44.356300 205.606628,44.872120 	C219.949127,50.060184 233.178879,57.018311 243.252518,68.750137 	C243.252518,68.750137 242.932343,69.087593 242.194260,68.948486 	C238.088501,67.706436 233.992294,66.431465 229.872513,65.237801 	C228.116394,64.728981 225.882980,64.923332 224.595505,63.889889 	C213.862732,55.274883 202.078568,48.697609 188.837234,44.880161 	C182.222061,42.973019 175.524384,41.352089 168.864014,39.601704 	C168.722000,39.986595 168.579987,40.371487 168.437958,40.756378 	C182.081848,45.250034 194.748917,51.332172 204.534958,62.184437 	C202.612030,62.113934 200.886093,61.634930 199.439423,60.716183 	C194.453049,57.549507 189.150528,57.375481 183.606079,58.614452 	C182.481277,58.865799 181.287750,58.795742 180.149750,59.004089 	C169.104477,61.026279 157.676651,61.892315 147.100220,65.355209 	C122.109489,73.537582 101.001106,87.987808 84.672615,108.842964 	C54.057785,147.944977 47.326290,191.272858 62.250347,238.290405 	C62.938519,240.458450 64.153755,242.459213 65.123520,244.537903 	C65.559845,244.437363 65.996170,244.336838 66.432495,244.236298 	C66.432495,237.095917 66.432495,229.955551 66.432495,222.815170 	C89.305931,315.331543 180.746964,335.199799 228.184143,315.472229 	C223.478439,315.004333 218.746750,314.711517 214.074463,314.018402 	C209.575653,313.351013 205.138245,312.269775 200.673859,311.370392 	C230.592239,309.868195 254.405533,298.313873 272.263123,273.880432 	C271.038269,273.415649 270.647430,273.119873 270.455872,273.217010 	C267.976990,274.474121 265.526428,275.787079 262.749023,276.748444 	C262.749023,276.748444 262.400665,276.440613 262.778229,275.882111 	C278.719849,257.877075 287.773071,226.759201 283.792358,213.954590 	C282.094757,218.277832 280.479675,222.390900 278.864624,226.503967 	C283.335602,200.621262 276.826416,178.892761 270.955505,172.367508 	C271.203888,173.534683 271.332153,174.324738 271.541199,175.092819 	C280.446014,207.813690 272.722168,236.438156 248.480209,259.677216 	C230.071854,277.324005 207.595123,285.176544 181.574661,282.148071 	C154.768356,279.028107 134.043640,266.261078 119.180756,244.158066 	C99.293190,214.582703 101.705734,171.666916 124.183601,145.187195 	C145.714066,119.823570 172.644119,109.382263 205.575256,115.127594 	C213.341293,116.482498 213.312500,116.618317 215.858170,109.737862 	C215.936569,109.525978 216.349152,109.437729 217.758072,108.637260 	C217.358002,119.427292 225.717926,121.877495 232.899521,125.555977 	C234.363159,126.305672 235.593262,127.514427 237.062897,128.247009 	C237.400269,128.415176 238.282227,127.490791 239.251404,126.748871 	C239.251404,126.748871 239.559601,126.399910 240.112717,126.772629 M126.000656,207.449814 	C128.480591,224.536438 136.128799,238.692657 149.864319,249.357162 	C166.325684,262.138000 184.717941,266.945923 205.225800,262.338257 	C220.395370,258.929962 233.070206,251.426346 242.603760,238.913025 	C254.886047,222.791809 259.554169,204.855469 255.418884,184.903183 	C252.543106,171.027954 245.778641,159.311584 235.259384,149.728989 	C219.744263,135.595383 201.134766,130.527405 180.956223,133.347961 	C162.772430,135.889709 147.565948,145.190079 137.094589,160.599701 	C127.741074,174.364288 123.114700,189.646347 126.000656,207.449814 M272.728333,271.870026 	C272.886200,271.736206 273.044067,271.602386 273.201935,271.468536 	C272.983185,271.505646 272.764465,271.542725 272.728333,271.870026 z"/>
<path fill="url(#gradient-1)" opacity="1.000000" stroke="none" 	d="M263.068726,277.085938 	C265.526428,275.787079 267.976990,274.474121 270.455872,273.217010 	C270.647430,273.119873 271.038269,273.415649 272.263123,273.880432 	C254.405533,298.313873 230.592239,309.868195 200.673859,311.370392 	C205.138245,312.269775 209.575653,313.351013 214.074463,314.018402 	C218.746750,314.711517 223.478439,315.004333 228.183594,315.476746 	C180.746964,335.199799 89.305931,315.331543 66.432495,222.815170 	C66.432495,229.955551 66.432495,237.095917 66.432495,244.236298 	C65.996170,244.336838 65.559845,244.437363 65.123520,244.537903 	C64.153755,242.459213 62.938519,240.458450 62.250347,238.290405 	C47.326290,191.272858 54.057785,147.944977 84.672615,108.842964 	C101.001106,87.987808 122.109489,73.537582 147.100220,65.355209 	C157.676651,61.892315 169.104477,61.026279 180.149750,59.004089 	C181.287750,58.795742 182.481277,58.865799 183.606079,58.614452 	C189.150528,57.375481 194.453049,57.549507 199.439423,60.716183 	C200.886093,61.634930 202.612030,62.113934 204.534958,62.184437 	C194.748917,51.332172 182.081848,45.250034 168.437958,40.756378 	C168.579987,40.371487 168.722000,39.986595 168.864014,39.601704 	C175.524384,41.352089 182.222061,42.973019 188.837234,44.880161 	C202.078568,48.697609 213.862732,55.274883 224.595505,63.889889 	C225.882980,64.923332 228.116394,64.728981 229.872513,65.237801 	C233.992294,66.431465 238.088501,67.706436 242.681488,69.196831 	C243.456421,69.495110 243.744125,69.545052 244.031845,69.594986 	C243.888306,69.210739 243.744766,68.826492 243.601227,68.442253 	C233.178879,57.018311 219.949127,50.060184 205.606628,44.872120 	C205.770035,44.356300 205.933426,43.840481 206.096832,43.324661 	C214.172775,45.452763 222.447449,47.024498 230.283722,49.823589 	C247.128738,55.840588 261.942780,65.407829 273.388794,79.190750 	C279.488770,86.536140 285.810333,93.189102 294.014374,98.087936 	C297.627411,100.245361 294.667816,102.271965 293.343201,104.106796 	C291.130615,107.171600 288.785583,110.140793 286.496338,113.150230 	C286.861328,113.447327 287.226349,113.744423 287.591370,114.041512 	C289.382904,113.096504 291.174408,112.151497 292.280396,111.568100 	C295.107666,120.626656 297.650726,129.434860 300.687805,138.069290 	C301.509033,140.403961 303.826385,142.212402 305.241577,143.991577 	C303.833984,149.349640 302.655426,155.137634 300.690460,160.645035 	C299.952393,162.713715 297.318665,164.066864 295.672760,165.859711 	C293.009003,168.761292 290.865906,173.411331 287.715027,174.208389 	C285.011292,174.892349 281.204681,171.215149 277.884674,169.468674 	C277.737793,169.391388 277.585602,169.303513 277.426025,169.274078 	C271.495941,168.180649 267.108673,165.377014 264.057709,159.773834 	C261.568176,155.201797 257.710693,151.374603 254.459747,147.217148 	C253.813675,147.681442 253.167603,148.145737 252.521515,148.610046 	C253.465805,147.617493 254.410095,146.624954 255.832703,145.129639 	C250.602554,139.022141 245.357635,132.897385 239.711823,126.438522 	C239.029037,126.040680 238.747147,125.976936 238.465256,125.913193 	C238.614685,126.298531 238.764114,126.683861 238.913544,127.069199 	C238.282227,127.490791 237.400269,128.415176 237.062897,128.247009 	C235.593262,127.514427 234.363159,126.305672 232.899521,125.555977 	C225.717926,121.877495 217.358002,119.427292 217.758072,108.637260 	C216.349152,109.437729 215.936569,109.525978 215.858170,109.737862 	C213.312500,116.618317 213.341293,116.482498 205.575256,115.127594 	C172.644119,109.382263 145.714066,119.823570 124.183601,145.187195 	C101.705734,171.666916 99.293190,214.582703 119.180756,244.158066 	C134.043640,266.261078 154.768356,279.028107 181.574661,282.148071 	C207.595123,285.176544 230.071854,277.324005 248.480209,259.677216 	C272.722168,236.438156 280.446014,207.813690 271.541199,175.092819 	C271.332153,174.324738 271.203888,173.534683 270.955505,172.367508 	C276.826416,178.892761 283.335602,200.621262 278.864624,226.503967 	C280.479675,222.390900 282.094757,218.277832 283.792358,213.954590 	C287.773071,226.759201 278.719849,257.877075 262.441803,276.285645 	C262.041534,276.970917 261.977722,277.252625 261.913910,277.534363 	C262.298859,277.384888 262.683777,277.235413 263.068726,277.085938 M262.877502,111.341072 	C260.084961,106.964569 256.587158,103.452698 251.594437,101.708862 	C249.876587,104.085335 248.357697,106.186562 246.810715,108.326653 	C252.690521,110.430733 258.310791,112.441940 264.454193,114.640350 	C263.899994,113.321693 263.590149,112.584496 262.877502,111.341072 M206.764709,64.659721 	C206.924957,64.543144 207.085205,64.426567 207.245453,64.309982 	C207.022339,64.330490 206.799240,64.350998 206.764709,64.659721 M231.151215,69.100670 	C231.325317,69.043839 231.499420,68.987007 231.673508,68.930176 	C231.489349,68.873177 231.305206,68.816177 231.151215,69.100670 z"/>
<path fill="url(#gradient-2)" opacity="1.000000" stroke="none" 	d="M125.999115,207.000336 	C123.114700,189.646347 127.741074,174.364288 137.094589,160.599701 	C147.565948,145.190079 162.772430,135.889709 180.956223,133.347961 	C201.134766,130.527405 219.744263,135.595383 235.259384,149.728989 	C245.778641,159.311584 252.543106,171.027954 255.418884,184.903183 	C259.554169,204.855469 254.886047,222.791809 242.603760,238.913025 	C233.070206,251.426346 220.395370,258.929962 205.225800,262.338257 	C184.717941,266.945923 166.325684,262.138000 149.864319,249.357162 	C136.128799,238.692657 128.480591,224.536438 125.999115,207.000336 M199.208633,160.955032 	C195.854034,160.328171 193.218887,156.910309 189.010544,159.544113 	C179.852844,165.275528 170.404678,170.550644 160.980774,175.844116 	C158.196930,177.407822 156.886047,179.340973 156.920761,182.582108 	C157.036530,193.393494 156.739059,204.215225 157.140717,215.012894 	C157.226700,217.324493 159.029526,220.432907 160.990097,221.666290 	C169.851624,227.240906 179.107880,232.183426 188.103271,237.552475 	C191.192841,239.396530 193.789566,239.402939 196.876907,237.563141 	C205.876175,232.200363 215.130005,227.253922 223.991333,221.678970 	C225.955185,220.443451 227.733276,217.345642 227.849564,215.018036 	C228.297195,206.057434 227.849503,197.056061 228.107788,188.080582 	C228.265167,182.611755 228.143005,177.513000 223.662292,173.835037 	C226.340622,173.083908 229.018951,172.332779 230.702118,171.860748 	C225.335144,169.250931 218.338593,167.551956 213.932587,163.218857 	C209.674286,159.031006 208.085144,152.129089 205.735870,147.271866 	C203.990265,151.413162 201.959412,156.231201 199.208633,160.955032 z"/>
<path fill="url(#gradient-0)" opacity="1.000000" stroke="none" 	d="M272.637024,271.724915 	C272.764465,271.542725 272.983185,271.505646 273.201935,271.468567 	C273.044067,271.602386 272.886200,271.736206 272.637024,271.724915 z"/>
<path fill="url(#gradient-1)" opacity="1.000000" stroke="none" 	d="M263.078918,111.594185 	C263.590149,112.584496 263.899994,113.321693 264.454193,114.640350 	C258.310791,112.441940 252.690521,110.430733 246.810715,108.326653 	C248.357697,106.186562 249.876587,104.085335 251.594437,101.708862 	C256.587158,103.452698 260.084961,106.964569 263.078918,111.594185 z"/>
<path fill="url(#gradient-2)" opacity="1.000000" stroke="none" 	d="M206.670410,64.515610 	C206.799240,64.350998 207.022339,64.330490 207.245453,64.309982 	C207.085205,64.426567 206.924957,64.543144 206.670410,64.515610 z"/>
<path fill="url(#gradient-0)" opacity="1.000000" stroke="none" 	d="M231.136139,68.929924 	C231.305206,68.816177 231.489349,68.873177 231.673508,68.930176 	C231.499420,68.987007 231.325317,69.043839 231.136139,68.929924 z"/>
<path fill="url(#gradient-1)" opacity="1.000000" stroke="none" 	d="M243.426880,68.596191 	C243.744766,68.826492 243.888306,69.210739 244.031845,69.594986 	C243.744125,69.545052 243.456421,69.495110 243.050522,69.266388 	C242.932343,69.087593 243.252518,68.750137 243.426880,68.596191 z"/>
<path fill="url(#gradient-2)" opacity="1.000000" stroke="none" 	d="M239.082474,126.909035 	C238.764114,126.683861 238.614685,126.298531 238.465256,125.913193 	C238.747147,125.976936 239.029037,126.040680 239.435272,126.252167 	C239.559601,126.399910 239.251404,126.748871 239.082474,126.909035 z"/>
<path fill="url(#gradient-0)" opacity="1.000000" stroke="none" 	d="M262.908875,276.917175 	C262.683777,277.235413 262.298859,277.384888 261.913910,277.534363 	C261.977722,277.252625 262.041534,276.970917 262.253021,276.564880 	C262.400665,276.440613 262.749023,276.748444 262.908875,276.917175 z"/>
<path fill="url(#gradient-1)" opacity="1.000000" stroke="none" 	d="M222.951050,174.145004 	C228.143005,177.513000 228.265167,182.611755 228.107788,188.080582 	C227.849503,197.056061 228.297195,206.057434 227.849564,215.018036 	C227.733276,217.345642 225.955185,220.443451 223.991333,221.678970 	C215.130005,227.253922 205.876175,232.200363 196.876907,237.563141 	C193.789566,239.402939 191.192841,239.396530 188.103271,237.552475 	C179.107880,232.183426 169.851624,227.240906 160.990097,221.666290 	C159.029526,220.432907 157.226700,217.324493 157.140717,215.012894 	C156.739059,204.215225 157.036530,193.393494 156.920761,182.582108 	C156.886047,179.340973 158.196930,177.407822 160.980774,175.844116 	C170.404678,170.550644 179.852844,165.275528 189.010544,159.544113 	C193.218887,156.910309 195.854034,160.328171 199.476318,161.320496 	C193.332443,165.340561 186.920853,168.995163 181.400528,172.141754 	C195.046829,173.228455 203.895584,181.416946 205.758728,197.136627 	C208.565353,186.745865 211.191422,177.014053 222.951050,174.145004 z"/>
<path fill="url(#gradient-2)" opacity="1.000000" stroke="none" 	d="M223.306671,173.990021 	C211.191422,177.014053 208.565353,186.745865 205.758728,197.136627 	C203.895584,181.416946 195.046829,173.228455 181.400528,172.141754 	C186.920853,168.995163 193.332443,165.340561 199.836288,161.367599 	C201.959412,156.231201 203.990265,151.413162 205.735870,147.271866 	C208.085144,152.129089 209.674286,159.031006 213.932587,163.218857 	C218.338593,167.551956 225.335144,169.250931 230.702118,171.860748 	C229.018951,172.332779 226.340622,173.083908 223.306671,173.990021 z"/>
</svg>
